<svg id="svg" version="1.1" xmlns="http://www.w3.org/2000/svg" xmlns:xlink="http://www.w3.org/1999/xlink" width="400" height="413.88888888888886" viewBox="0, 0, 400,413.88888888888886"><g id="svgg"><path id="path0" d="M37.600 0.550 C 37.600 1.308,35.796 1.600,31.115 1.600 L 27.131 1.600 26.692 2.762 C 26.291 3.825,26.028 3.954,23.626 4.262 C 21.296 4.562,20.999 4.699,20.988 5.479 C 20.970 6.772,20.217 7.083,16.900 7.167 C 16.185 7.185,15.619 7.335,15.643 7.500 C 15.785 8.484,14.989 9.583,13.972 9.806 C 12.777 10.069,12.554 10.627,12.304 14.000 C 12.215 15.199,12.070 15.382,11.300 15.275 C 9.733 15.057,9.531 16.547,9.739 26.794 C 9.958 37.600,9.891 37.022,10.926 37.100 C 12.189 37.195,12.363 37.626,12.422 40.803 C 12.498 44.933,12.648 45.413,13.890 45.516 C 15.270 45.630,15.181 45.378,15.237 49.330 C 15.264 51.242,15.449 52.907,15.649 53.030 C 15.849 53.154,15.902 53.435,15.766 53.654 C 15.631 53.874,15.763 54.020,16.060 53.979 C 17.932 53.722,18.000 53.844,18.000 57.426 C 18.000 61.320,18.394 62.400,19.814 62.400 L 20.800 62.400 20.847 71.500 C 20.873 76.505,20.861 80.844,20.820 81.141 C 20.779 81.439,20.876 81.979,21.034 82.341 C 21.193 82.704,21.340 83.270,21.361 83.600 C 21.384 83.944,21.869 84.254,22.500 84.327 L 23.600 84.453 23.606 88.127 C 23.613 92.171,23.739 92.536,25.200 92.739 C 26.461 92.915,26.321 92.598,26.471 95.604 C 26.556 97.310,26.771 98.217,27.100 98.250 C 27.375 98.278,27.960 98.323,28.400 98.350 C 29.104 98.394,29.200 98.683,29.200 100.751 C 29.200 102.978,29.724 104.134,30.658 103.967 C 31.618 103.794,31.961 104.117,32.075 105.300 C 32.185 106.443,32.357 106.615,33.500 106.725 C 34.542 106.826,34.800 107.028,34.800 107.745 C 34.800 108.894,35.516 109.600,36.680 109.600 C 37.465 109.600,37.600 109.806,37.600 111.000 C 37.600 111.770,37.735 112.379,37.900 112.353 C 39.449 112.108,40.400 112.467,40.406 113.300 C 40.415 114.623,40.860 115.112,42.196 115.264 C 43.164 115.374,43.390 115.589,43.394 116.400 C 43.401 117.627,45.545 118.330,47.251 117.666 C 48.281 117.265,48.304 117.177,48.361 113.328 C 48.446 107.537,48.636 106.800,50.045 106.800 L 51.200 106.800 51.200 99.800 L 51.200 92.800 52.600 92.800 L 54.000 92.800 54.000 90.218 L 54.000 87.636 55.400 87.374 L 56.800 87.111 56.800 84.581 L 56.800 82.051 58.100 81.925 C 59.238 81.816,59.415 81.640,59.524 80.524 C 59.631 79.412,59.812 79.231,60.924 79.124 C 62.035 79.016,62.216 78.835,62.324 77.724 C 62.431 76.612,62.612 76.431,63.724 76.324 C 64.835 76.216,65.016 76.035,65.124 74.924 C 65.231 73.812,65.412 73.631,66.524 73.524 C 67.635 73.416,67.816 73.235,67.924 72.124 C 68.031 71.012,68.212 70.831,69.324 70.724 C 70.436 70.616,70.616 70.436,70.724 69.318 L 70.848 68.035 73.524 67.918 L 76.200 67.800 76.324 66.518 L 76.448 65.235 79.124 65.118 L 81.800 65.000 81.925 63.700 L 82.051 62.400 84.583 62.400 C 87.220 62.400,87.600 62.144,87.600 60.367 C 87.600 59.662,87.923 59.600,91.575 59.600 L 95.549 59.600 95.675 58.300 L 95.800 57.000 101.300 56.889 L 106.800 56.777 106.800 55.389 L 106.800 54.000 115.175 54.000 L 123.549 54.000 123.675 55.300 L 123.800 56.600 130.700 56.709 L 137.600 56.819 137.600 58.209 L 137.600 59.600 141.800 59.600 L 146.000 59.600 146.000 61.000 L 146.000 62.400 149.955 62.400 L 153.911 62.400 154.174 63.800 C 154.401 65.010,154.590 65.200,155.574 65.200 C 156.557 65.200,156.747 65.390,156.974 66.600 L 157.236 68.000 159.793 68.000 L 162.349 68.000 162.475 69.300 C 162.584 70.438,162.760 70.615,163.876 70.724 C 164.988 70.831,165.169 71.012,165.276 72.124 C 165.384 73.235,165.565 73.416,166.676 73.524 C 167.788 73.631,167.969 73.812,168.076 74.924 C 168.184 76.035,168.365 76.216,169.476 76.324 C 170.588 76.431,170.769 76.612,170.876 77.724 C 170.984 78.835,171.165 79.016,172.276 79.124 C 173.388 79.231,173.569 79.412,173.676 80.524 C 173.785 81.640,173.962 81.816,175.100 81.925 L 176.400 82.051 176.400 84.581 L 176.400 87.111 177.781 87.370 L 179.163 87.629 179.281 90.115 C 179.400 92.598,179.401 92.600,180.700 92.725 C 181.983 92.849,182.165 93.099,182.016 94.530 C 181.970 94.971,182.268 95.345,182.770 95.476 C 183.452 95.655,183.600 96.008,183.600 97.459 C 183.600 98.667,183.791 99.299,184.205 99.457 C 185.203 99.840,186.000 98.816,186.000 97.151 C 186.000 96.085,186.176 95.600,186.562 95.600 C 187.185 95.600,187.871 91.963,187.395 91.192 C 187.244 90.947,187.120 90.117,187.120 89.346 C 187.120 88.286,186.979 87.999,186.539 88.168 C 186.171 88.309,186.062 88.223,186.242 87.932 C 186.434 87.621,186.249 87.546,185.663 87.700 C 184.856 87.911,184.799 87.779,184.780 85.663 C 184.731 80.109,184.420 79.027,182.953 79.307 C 181.992 79.491,181.715 78.528,181.976 75.916 C 182.097 74.708,181.216 73.549,180.275 73.679 C 179.475 73.790,179.379 73.583,179.157 71.259 C 178.914 68.718,178.477 68.018,177.125 68.006 C 176.662 68.002,176.411 67.602,176.325 66.731 C 176.220 65.661,176.013 65.438,175.007 65.305 C 173.511 65.108,173.655 65.370,173.517 62.584 C 173.404 60.276,173.358 60.188,172.100 59.817 C 171.035 59.504,170.800 59.233,170.800 58.317 C 170.800 57.703,170.620 57.178,170.400 57.150 C 170.180 57.123,169.820 57.055,169.600 57.000 C 169.380 56.945,168.930 56.877,168.600 56.850 C 168.155 56.813,168.000 56.293,168.000 54.833 C 168.000 52.141,167.725 51.600,166.357 51.600 C 165.301 51.600,165.200 51.477,165.200 50.200 C 165.200 49.430,165.065 48.821,164.900 48.847 C 163.041 49.141,162.400 48.770,162.400 47.400 C 162.400 46.067,162.333 46.000,161.000 46.000 C 159.667 46.000,159.600 45.933,159.600 44.600 C 159.600 43.267,159.533 43.200,158.200 43.200 C 156.867 43.200,156.800 43.133,156.800 41.800 C 156.800 40.467,156.733 40.400,155.400 40.400 C 154.067 40.400,154.000 40.333,154.000 39.000 C 154.000 37.667,153.933 37.600,152.600 37.600 C 151.267 37.600,151.200 37.533,151.200 36.200 C 151.200 34.867,151.133 34.800,149.800 34.800 C 148.472 34.800,148.400 34.730,148.400 33.425 C 148.400 32.167,148.290 32.040,147.100 31.925 C 145.972 31.817,145.774 31.626,145.600 30.484 C 145.490 29.761,145.265 29.176,145.100 29.184 C 143.454 29.271,143.204 29.125,142.888 27.900 C 142.629 26.893,142.312 26.572,141.482 26.474 C 140.657 26.377,140.333 26.053,140.078 25.074 C 139.731 23.745,139.676 23.723,136.525 23.643 C 134.939 23.602,134.844 23.532,134.725 22.300 C 134.616 21.162,134.440 20.985,133.324 20.876 C 132.212 20.769,132.031 20.588,131.924 19.476 C 131.848 18.695,131.567 18.179,131.200 18.146 C 130.870 18.117,130.285 18.072,129.900 18.046 C 129.482 18.019,129.200 17.678,129.200 17.200 C 129.200 16.760,129.009 16.400,128.776 16.400 C 128.543 16.400,128.481 16.192,128.638 15.938 C 128.809 15.663,128.749 15.585,128.489 15.745 C 128.251 15.892,127.937 15.822,127.792 15.587 C 127.648 15.353,127.230 15.191,126.865 15.227 C 124.580 15.451,123.600 15.186,123.600 14.344 C 123.600 13.064,122.445 12.427,120.100 12.413 C 118.047 12.400,118.000 12.374,118.000 11.227 C 118.000 10.055,117.164 9.427,115.951 9.686 C 115.658 9.749,115.359 9.408,115.285 8.929 C 115.067 7.504,114.247 7.164,110.430 6.917 C 106.689 6.674,106.512 6.571,106.736 4.750 C 106.753 4.613,105.514 4.377,103.983 4.226 C 101.993 4.030,101.186 3.788,101.150 3.376 C 101.123 3.059,101.078 2.575,101.050 2.300 C 101.017 1.969,100.123 1.764,98.400 1.694 C 94.564 1.537,93.200 1.246,93.200 0.582 C 93.200 0.078,89.460 0.000,65.400 0.000 C 42.079 0.000,37.600 0.089,37.600 0.550 M306.800 0.582 C 306.800 1.243,305.440 1.536,301.639 1.694 C 299.268 1.792,299.068 1.872,298.930 2.776 C 298.728 4.103,298.922 4.035,294.798 4.229 C 290.612 4.427,290.400 4.501,290.400 5.777 C 290.400 6.627,290.175 6.731,287.783 6.987 C 285.298 7.253,285.155 7.326,284.933 8.434 C 284.805 9.075,284.498 9.621,284.250 9.646 C 284.002 9.672,283.620 9.734,283.400 9.785 C 283.180 9.836,282.775 9.906,282.500 9.939 C 282.225 9.973,282.000 10.539,282.000 11.200 C 282.000 12.379,281.964 12.400,279.900 12.413 C 277.555 12.427,276.400 13.064,276.400 14.344 C 276.400 15.090,276.172 15.200,274.624 15.200 C 273.647 15.200,272.741 15.372,272.611 15.583 C 272.481 15.793,272.127 15.870,271.825 15.754 C 271.461 15.614,271.185 15.957,271.006 16.772 C 270.843 17.513,270.471 18.018,270.068 18.046 C 269.701 18.072,269.130 18.117,268.800 18.146 C 268.433 18.179,268.152 18.695,268.076 19.476 C 267.969 20.588,267.788 20.769,266.676 20.876 C 265.560 20.985,265.384 21.162,265.275 22.300 C 265.153 23.562,263.991 24.016,261.859 23.634 C 261.263 23.527,259.982 24.046,260.144 24.329 C 260.535 25.009,259.625 26.217,258.586 26.400 C 257.711 26.554,257.373 26.898,257.114 27.900 C 256.831 28.991,256.591 29.200,255.614 29.200 C 254.594 29.200,254.435 29.360,254.325 30.500 C 254.215 31.643,254.043 31.815,252.900 31.925 C 251.710 32.040,251.600 32.167,251.600 33.425 C 251.600 34.730,251.528 34.800,250.200 34.800 C 248.867 34.800,248.800 34.867,248.800 36.200 C 248.800 37.533,248.733 37.600,247.400 37.600 C 246.067 37.600,246.000 37.667,246.000 39.000 C 246.000 40.333,245.933 40.400,244.600 40.400 C 243.267 40.400,243.200 40.467,243.200 41.800 C 243.200 43.133,243.133 43.200,241.800 43.200 C 240.467 43.200,240.400 43.267,240.400 44.600 C 240.400 45.933,240.333 46.000,239.000 46.000 C 238.230 46.000,237.621 46.135,237.647 46.300 C 237.934 48.118,237.563 48.800,236.285 48.800 C 235.098 48.800,234.961 48.922,234.875 50.055 C 234.751 51.682,234.518 52.020,233.729 51.718 C 232.747 51.341,232.000 52.706,232.000 54.876 C 232.000 56.124,231.824 56.816,231.500 56.846 C 231.225 56.872,230.820 56.934,230.600 56.985 C 230.380 57.036,229.975 57.106,229.700 57.139 C 229.425 57.173,229.200 57.703,229.200 58.317 C 229.200 59.233,228.965 59.504,227.900 59.817 C 226.545 60.216,226.524 60.269,226.443 63.475 C 226.402 65.061,226.332 65.156,225.100 65.275 C 224.385 65.344,223.778 65.625,223.750 65.900 C 223.722 66.175,223.678 66.833,223.650 67.363 C 223.614 68.065,223.411 68.280,222.900 68.157 C 221.569 67.838,221.008 68.674,220.800 71.285 C 220.617 73.592,220.528 73.790,219.725 73.679 C 218.589 73.522,218.103 74.484,218.060 76.968 C 218.026 78.940,217.534 79.703,216.542 79.322 C 215.982 79.107,215.125 80.835,215.232 81.964 C 215.561 85.433,215.174 87.918,214.337 87.700 C 213.751 87.546,213.566 87.621,213.758 87.932 C 213.938 88.223,213.829 88.309,213.461 88.168 C 213.021 87.999,212.880 88.286,212.880 89.346 C 212.880 90.117,212.756 90.947,212.605 91.192 C 212.129 91.963,212.815 95.600,213.438 95.600 C 213.824 95.600,214.000 96.085,214.000 97.151 C 214.000 98.816,214.797 99.840,215.795 99.457 C 216.209 99.299,216.400 98.667,216.400 97.459 C 216.400 96.008,216.548 95.655,217.230 95.476 C 217.732 95.345,218.030 94.971,217.984 94.530 C 217.835 93.099,218.017 92.849,219.300 92.725 C 220.599 92.600,220.600 92.598,220.719 90.115 L 220.837 87.629 222.219 87.370 L 223.600 87.111 223.600 84.581 L 223.600 82.051 224.900 81.925 C 226.038 81.816,226.215 81.640,226.324 80.524 C 226.431 79.412,226.612 79.231,227.724 79.124 C 228.835 79.016,229.016 78.835,229.124 77.724 C 229.231 76.612,229.412 76.431,230.524 76.324 C 231.635 76.216,231.816 76.035,231.924 74.924 C 232.031 73.812,232.212 73.631,233.324 73.524 C 234.435 73.416,234.616 73.235,234.724 72.124 C 234.831 71.012,235.012 70.831,236.124 70.724 C 237.240 70.615,237.416 70.438,237.525 69.300 L 237.651 68.000 240.207 68.000 L 242.764 68.000 243.026 66.600 L 243.289 65.200 245.845 65.200 L 248.400 65.200 248.400 63.800 L 248.400 62.400 251.200 62.400 L 254.000 62.400 254.000 61.000 L 254.000 59.600 258.200 59.600 L 262.400 59.600 262.400 58.211 L 262.400 56.823 267.900 56.711 L 273.400 56.600 273.525 55.300 L 273.651 54.000 282.025 54.000 L 290.400 54.000 290.400 55.391 L 290.400 56.781 297.300 56.891 L 304.200 57.000 304.325 58.300 L 304.451 59.600 308.425 59.600 C 312.077 59.600,312.400 59.662,312.400 60.367 C 312.400 62.144,312.780 62.400,315.417 62.400 L 317.949 62.400 318.075 63.700 L 318.200 65.000 320.876 65.118 L 323.552 65.235 323.676 66.518 L 323.800 67.800 326.476 67.918 L 329.152 68.035 329.276 69.318 C 329.384 70.436,329.564 70.616,330.676 70.724 C 331.788 70.831,331.969 71.012,332.076 72.124 C 332.184 73.235,332.365 73.416,333.476 73.524 C 334.588 73.631,334.769 73.812,334.876 74.924 C 334.984 76.035,335.165 76.216,336.276 76.324 C 337.388 76.431,337.569 76.612,337.676 77.724 C 337.785 78.840,337.962 79.016,339.100 79.125 L 340.400 79.251 340.400 81.807 L 340.400 84.364 341.800 84.626 C 343.002 84.852,343.200 85.047,343.200 86.002 C 343.200 87.132,343.796 87.600,345.233 87.600 C 345.910 87.600,346.000 87.904,346.000 90.200 L 346.000 92.800 347.400 92.800 L 348.800 92.800 348.800 99.800 L 348.800 106.800 349.955 106.800 C 351.364 106.800,351.554 107.537,351.639 113.328 C 351.696 117.177,351.719 117.265,352.749 117.666 C 354.455 118.330,356.599 117.627,356.606 116.400 C 356.610 115.589,356.836 115.374,357.804 115.264 C 359.140 115.112,359.585 114.623,359.594 113.300 C 359.600 112.467,360.551 112.108,362.100 112.353 C 362.265 112.379,362.400 111.770,362.400 111.000 C 362.400 109.806,362.535 109.600,363.320 109.600 C 364.484 109.600,365.200 108.894,365.200 107.745 C 365.200 107.028,365.458 106.826,366.500 106.725 C 367.643 106.615,367.815 106.443,367.925 105.300 C 368.021 104.307,368.240 104.000,368.854 104.000 C 369.682 104.000,370.856 103.089,370.760 102.521 C 370.337 100.031,370.844 98.446,372.100 98.325 C 373.497 98.191,373.481 98.229,373.554 94.900 C 373.599 92.834,373.620 92.800,374.824 92.800 C 375.537 92.800,375.944 92.633,375.800 92.400 C 375.664 92.180,375.750 92.000,375.992 92.000 C 376.233 92.000,376.395 91.595,376.353 91.100 C 375.988 86.852,376.394 84.454,377.500 84.327 C 378.210 84.245,378.602 83.962,378.605 83.528 C 378.608 83.159,378.732 82.734,378.882 82.585 C 379.031 82.435,379.168 77.886,379.186 72.474 C 379.218 62.606,379.337 61.771,380.633 62.268 C 381.216 62.492,382.077 61.092,381.976 60.084 C 381.608 56.406,382.017 54.000,383.010 54.000 C 384.370 54.000,384.800 52.745,384.800 48.774 C 384.800 45.480,384.932 45.274,386.870 45.543 C 387.194 45.588,387.497 43.991,387.578 41.815 C 387.646 39.974,387.744 39.828,388.921 39.812 C 390.089 39.796,390.134 39.311,390.170 26.485 C 390.202 15.324,390.134 14.918,388.300 15.357 C 387.727 15.495,387.600 15.250,387.600 14.013 C 387.600 11.122,387.209 10.102,386.010 9.862 C 385.025 9.665,384.212 8.504,384.357 7.500 C 384.381 7.335,383.815 7.185,383.100 7.167 C 379.791 7.083,379.111 6.806,379.046 5.513 C 379.005 4.695,378.722 4.564,376.342 4.258 C 373.865 3.940,373.668 3.841,373.461 2.806 L 373.239 1.694 369.119 1.638 C 364.123 1.569,362.400 1.292,362.400 0.555 C 362.400 0.087,358.054 0.000,334.600 0.000 C 310.540 0.000,306.800 0.078,306.800 0.582 M73.880 76.653 C 73.726 76.807,73.600 77.443,73.600 78.067 C 73.600 79.095,73.471 79.200,72.200 79.200 C 70.870 79.200,70.800 79.269,70.800 80.582 L 70.800 81.963 68.100 82.082 L 65.400 82.200 65.276 83.476 C 65.169 84.588,64.988 84.769,63.876 84.876 C 62.765 84.984,62.584 85.165,62.476 86.276 C 62.369 87.388,62.188 87.569,61.076 87.676 C 59.960 87.785,59.784 87.962,59.675 89.100 C 59.565 90.238,59.405 90.400,58.393 90.400 C 57.163 90.400,56.966 90.866,56.704 94.400 C 56.615 95.599,56.442 95.818,55.500 95.927 C 54.346 96.059,54.268 96.280,54.220 99.574 C 54.202 100.782,54.043 100.989,52.900 101.285 L 51.600 101.623 51.600 108.411 L 51.600 115.200 52.761 115.200 C 53.887 115.200,53.930 115.274,54.209 117.700 C 54.543 120.607,54.728 120.786,57.417 120.794 C 59.346 120.800,59.451 120.857,59.817 122.100 L 60.200 123.400 65.500 123.512 L 70.800 123.623 70.800 124.769 C 70.800 126.455,69.824 126.400,100.000 126.400 C 130.192 126.400,129.200 126.456,129.200 124.762 L 129.200 123.611 142.900 123.505 L 156.600 123.400 156.725 122.107 L 156.850 120.814 166.525 120.707 L 176.200 120.600 176.325 119.300 C 176.417 118.346,176.648 118.000,177.193 118.000 C 178.271 118.000,179.200 117.578,179.200 117.089 C 179.200 116.855,179.498 116.334,179.862 115.931 C 180.478 115.251,180.478 115.149,179.862 114.469 C 179.498 114.066,179.200 113.545,179.200 113.311 C 179.200 112.674,178.176 112.400,175.793 112.400 C 173.668 112.400,173.650 112.389,173.525 111.100 L 173.400 109.800 166.525 109.691 L 159.649 109.581 159.525 108.291 L 159.400 107.000 153.925 106.889 L 148.449 106.778 148.325 105.489 L 148.200 104.200 144.379 104.086 L 140.558 103.973 140.179 102.686 L 139.800 101.400 135.900 101.286 C 132.042 101.172,132.000 101.160,132.000 100.176 C 132.000 98.831,130.730 98.400,126.774 98.400 L 123.600 98.400 123.600 97.254 C 123.600 95.961,122.278 95.600,117.544 95.600 C 115.206 95.600,115.200 95.597,115.200 94.400 C 115.200 93.273,115.106 93.200,113.650 93.200 C 110.541 93.200,109.600 92.817,109.600 91.550 L 109.600 90.400 105.400 90.400 L 101.200 90.400 101.200 89.000 L 101.200 87.600 98.643 87.600 C 95.978 87.600,95.600 87.347,95.600 85.567 C 95.600 84.890,95.296 84.800,93.000 84.800 C 90.704 84.800,90.400 84.710,90.400 84.033 C 90.400 82.256,90.020 82.000,87.383 82.000 L 84.851 82.000 84.725 80.700 C 84.616 79.562,84.440 79.385,83.324 79.276 C 82.212 79.169,82.031 78.988,81.924 77.876 L 81.800 76.600 77.980 76.486 C 75.879 76.424,74.034 76.499,73.880 76.653 M318.280 76.653 C 318.126 76.807,318.000 77.443,318.000 78.067 C 318.000 79.193,317.984 79.200,315.443 79.200 C 312.786 79.200,312.400 79.455,312.400 81.207 C 312.400 81.752,312.054 81.983,311.100 82.075 C 309.957 82.185,309.785 82.357,309.675 83.500 L 309.549 84.800 306.975 84.800 C 304.703 84.800,304.400 84.890,304.400 85.567 C 304.400 87.347,304.022 87.600,301.357 87.600 L 298.800 87.600 298.800 89.000 L 298.800 90.400 294.600 90.400 L 290.400 90.400 290.400 91.550 C 290.400 92.817,289.459 93.200,286.350 93.200 C 284.894 93.200,284.800 93.273,284.800 94.400 C 284.800 95.597,284.794 95.600,282.456 95.600 C 277.722 95.600,276.400 95.961,276.400 97.254 L 276.400 98.400 273.226 98.400 C 269.270 98.400,268.000 98.831,268.000 100.176 C 268.000 101.160,267.958 101.172,264.100 101.286 L 260.200 101.400 259.821 102.686 L 259.442 103.973 255.621 104.086 L 251.800 104.200 251.675 105.489 L 251.551 106.778 246.075 106.889 L 240.600 107.000 240.475 108.291 L 240.351 109.581 233.475 109.691 L 226.600 109.800 226.475 111.100 C 226.350 112.389,226.332 112.400,224.207 112.400 C 221.824 112.400,220.800 112.674,220.800 113.311 C 220.800 113.545,220.502 114.066,220.138 114.469 C 219.522 115.149,219.522 115.251,220.138 115.931 C 220.502 116.334,220.800 116.855,220.800 117.089 C 220.800 117.578,221.729 118.000,222.807 118.000 C 223.352 118.000,223.583 118.346,223.675 119.300 L 223.800 120.600 232.075 120.708 L 240.351 120.816 240.475 122.108 L 240.600 123.400 254.300 123.505 L 268.000 123.611 268.000 124.525 C 268.000 126.446,267.280 126.400,297.047 126.400 C 327.390 126.400,326.400 126.455,326.400 124.767 L 326.400 123.619 333.100 123.510 L 339.800 123.400 340.183 122.100 C 340.549 120.857,340.654 120.800,342.583 120.794 C 345.272 120.786,345.457 120.607,345.791 117.700 C 346.070 115.274,346.113 115.200,347.239 115.200 L 348.400 115.200 348.400 108.390 L 348.400 101.580 347.200 101.340 C 346.234 101.147,345.999 100.895,345.996 100.050 C 345.984 97.252,345.533 96.047,344.451 95.922 C 343.564 95.819,343.384 95.582,343.296 94.400 C 343.034 90.866,342.837 90.400,341.607 90.400 C 340.595 90.400,340.435 90.238,340.325 89.100 C 340.216 87.962,340.040 87.785,338.924 87.676 C 337.812 87.569,337.631 87.388,337.524 86.276 C 337.416 85.165,337.235 84.984,336.124 84.876 C 335.012 84.769,334.831 84.588,334.724 83.476 L 334.600 82.200 331.900 82.082 L 329.200 81.963 329.200 80.582 C 329.200 79.274,329.126 79.200,327.825 79.200 C 326.567 79.200,326.440 79.090,326.325 77.900 L 326.200 76.600 322.380 76.486 C 320.279 76.424,318.434 76.499,318.280 76.653 M40.883 132.477 C 40.618 132.742,40.400 133.374,40.400 133.880 C 40.400 134.665,40.194 134.800,39.000 134.800 C 38.230 134.800,37.621 134.935,37.647 135.100 C 37.922 136.841,37.549 137.554,36.300 137.675 L 35.000 137.800 35.000 170.600 L 35.000 203.400 36.280 203.777 C 37.314 204.082,37.584 204.390,37.680 205.377 C 37.784 206.434,37.976 206.617,39.100 206.725 C 39.874 206.800,40.420 207.083,40.450 207.425 C 40.477 207.741,40.523 208.187,40.550 208.415 C 40.578 208.643,40.870 208.999,41.200 209.206 C 42.290 209.890,175.138 209.719,175.824 209.033 C 176.312 208.545,176.381 202.932,176.298 170.331 L 176.200 132.200 108.783 132.097 C 56.507 132.016,41.258 132.102,40.883 132.477 M221.046 132.625 C 220.475 134.113,220.791 208.448,221.371 209.028 C 222.339 209.996,355.090 209.872,355.884 208.902 C 356.200 208.516,356.328 208.453,356.168 208.762 C 355.974 209.136,356.034 209.226,356.349 209.032 C 356.609 208.871,356.795 208.528,356.763 208.270 C 356.623 207.138,356.879 206.843,358.100 206.725 C 359.248 206.615,359.424 206.437,359.603 205.200 C 359.757 204.141,359.978 203.829,360.512 203.920 C 362.458 204.249,362.410 205.100,362.395 170.833 C 362.381 136.213,362.449 137.600,360.757 137.600 C 359.650 137.600,359.279 136.831,359.553 135.100 C 359.579 134.935,358.981 134.800,358.225 134.800 C 356.967 134.800,356.840 134.690,356.725 133.500 L 356.600 132.200 288.941 132.103 C 228.220 132.017,221.259 132.070,221.046 132.625 M62.818 251.967 C 62.256 253.016,62.241 387.529,62.802 389.005 C 63.095 389.775,63.437 390.017,64.100 389.925 C 64.806 389.827,65.023 390.016,65.105 390.800 C 65.548 395.003,65.597 395.136,66.820 395.404 C 67.695 395.596,68.000 395.894,68.000 396.552 C 68.000 397.694,68.718 398.400,69.880 398.400 C 70.591 398.400,70.800 398.624,70.800 399.386 C 70.800 400.286,71.871 401.294,72.684 401.158 C 73.579 401.009,73.906 401.275,73.716 402.000 C 73.594 402.465,73.704 402.800,73.977 402.800 C 74.236 402.800,74.355 402.950,74.241 403.133 C 74.128 403.317,74.252 403.489,74.518 403.515 C 77.773 403.844,79.404 404.270,79.439 404.800 C 79.523 406.088,79.636 406.232,80.700 406.412 C 82.518 406.721,174.943 406.623,175.702 406.312 C 176.671 405.914,176.798 252.741,175.830 251.773 C 174.803 250.746,63.369 250.937,62.818 251.967 M224.104 251.798 C 223.371 252.625,223.365 405.801,224.098 406.275 C 224.762 406.705,316.993 406.914,319.026 406.490 C 319.937 406.300,320.623 405.918,320.654 405.581 C 320.683 405.261,320.728 404.796,320.754 404.547 C 320.780 404.292,321.947 403.970,323.417 403.813 C 325.902 403.547,326.045 403.474,326.267 402.366 C 326.436 401.520,326.733 401.198,327.350 401.194 C 328.543 401.185,329.029 400.753,329.099 399.636 C 329.165 398.592,329.846 397.966,330.600 398.255 C 331.101 398.448,332.070 397.517,331.967 396.942 C 331.803 396.031,332.071 395.600,332.800 395.600 C 333.240 395.600,333.600 395.409,333.600 395.176 C 333.600 394.943,333.808 394.881,334.062 395.038 C 334.337 395.209,334.415 395.149,334.255 394.889 C 334.108 394.651,334.178 394.337,334.413 394.192 C 334.647 394.048,334.809 393.630,334.773 393.265 C 334.598 391.478,334.835 389.574,335.204 389.802 C 335.762 390.147,337.038 389.694,337.199 389.094 C 337.552 387.774,337.559 253.146,337.207 252.217 L 336.818 251.195 280.709 251.216 C 233.143 251.235,224.524 251.323,224.104 251.798 " stroke="none" fill="#946cf4" fill-rule="evenodd"></path><path id="path1" d="M182.278 132.256 C 182.133 132.401,182.009 151.694,182.004 175.130 C 181.998 198.566,181.936 217.798,181.866 217.868 C 181.796 217.938,154.996 217.998,122.311 218.003 L 62.884 218.010 62.660 218.905 C 61.607 223.119,62.521 248.516,63.721 248.365 C 63.984 248.332,90.705 248.327,123.099 248.353 L 181.998 248.400 182.099 327.300 C 182.193 400.871,182.245 406.200,182.872 406.205 C 183.241 406.208,183.672 406.339,183.829 406.496 C 184.202 406.869,215.798 406.869,216.171 406.496 C 216.328 406.339,216.759 406.208,217.128 406.205 C 217.755 406.200,217.807 400.871,217.901 327.300 L 218.002 248.400 276.901 248.353 C 309.295 248.327,336.016 248.332,336.279 248.365 C 337.479 248.516,338.393 223.119,337.340 218.905 L 337.116 218.010 277.689 218.003 C 245.004 217.998,218.205 217.938,218.136 217.869 C 218.067 217.800,217.963 198.496,217.905 174.972 L 217.800 132.200 200.171 132.096 C 190.475 132.039,182.423 132.110,182.278 132.256 " stroke="none" fill="#f4f4f4" fill-rule="evenodd"></path></g></svg>