<?xml version="1.0" encoding="UTF-8"?>
<!DOCTYPE svg PUBLIC "-//W3C//DTD SVG 1.1//EN" "http://www.w3.org/Graphics/SVG/1.1/DTD/svg11.dtd">
<svg xmlns="http://www.w3.org/2000/svg" version="1.1" width="69px" height="78px" style="shape-rendering:geometricPrecision; text-rendering:geometricPrecision; image-rendering:optimizeQuality; fill-rule:evenodd; clip-rule:evenodd" xmlns:xlink="http://www.w3.org/1999/xlink">
<g><path style="opacity:0.993" fill="#f9f8fc" d="M 34.5,4.5 C 35.3157,12.2464 36.649,19.913 38.5,27.5C 45.8011,27.8944 53.1344,28.0611 60.5,28C 62.9211,31.0482 62.5878,33.8815 59.5,36.5C 53.4908,36.3338 47.4908,36.5005 41.5,37C 39.5049,37.9236 39.1716,39.0903 40.5,40.5C 40.837,47.0275 41.5037,53.5275 42.5,60C 42.9588,62.9595 41.9588,65.1262 39.5,66.5C 37.2075,66.7564 35.0408,66.4231 33,65.5C 32.1211,56.9122 30.9544,48.4122 29.5,40C 24.2025,39.7794 19.0358,40.6127 14,42.5C 11.2439,42.5765 10.0772,41.2431 10.5,38.5C 11.0283,37.2794 11.695,36.1127 12.5,35C 16.3268,33.2103 20.3268,32.0436 24.5,31.5C 25.4959,31.5858 26.3292,31.2524 27,30.5C 27.1667,29.1667 27.3333,27.8333 27.5,26.5C 26.0098,19.9126 25.0098,13.246 24.5,6.5C 24.5774,5.25025 25.244,4.41691 26.5,4C 29.2605,3.27817 31.9272,3.44484 34.5,4.5 Z"/></g>
<g><path style="opacity:0.955" fill="#936af3" d="M 65.5,41.5 C 63.8967,41.6882 62.5634,41.1882 61.5,40C 62.1667,39.6667 62.8333,39.3333 63.5,39C 62.3066,37.9054 60.9733,37.072 59.5,36.5C 62.5878,33.8815 62.9211,31.0482 60.5,28C 53.1344,28.0611 45.8011,27.8944 38.5,27.5C 36.649,19.913 35.3157,12.2464 34.5,4.5C 40.6868,3.6964 46.8535,2.6964 53,1.5C 55.151,1.64312 56.8176,2.64312 58,4.5C 60.9324,16.7651 63.4324,29.0985 65.5,41.5 Z"/></g>
<g><path style="opacity:0.978" fill="#0e0d0f" d="M 24.5,6.5 C 25.0098,13.246 26.0098,19.9126 27.5,26.5C 27.3333,27.8333 27.1667,29.1667 27,30.5C 26.3292,31.2524 25.4959,31.5858 24.5,31.5C 23.0376,23.5212 21.7042,15.5212 20.5,7.5C 21.7079,6.76589 23.0413,6.43255 24.5,6.5 Z"/></g>
<g><path style="opacity:0.974" fill="#8f68ee" d="M 20.5,7.5 C 21.7042,15.5212 23.0376,23.5212 24.5,31.5C 20.3268,32.0436 16.3268,33.2103 12.5,35C 11.695,36.1127 11.0283,37.2794 10.5,38.5C 9.5041,38.4142 8.67076,38.7476 8,39.5C 6.632,34.6014 5.632,29.6014 5,24.5C 4.56404,21.6021 3.39737,19.2688 1.5,17.5C 1.10433,14.9556 1.77099,12.7889 3.5,11C 9.02387,9.19008 14.6905,8.02341 20.5,7.5 Z"/></g>
<g><path style="opacity:0.929" fill="#0b090f" d="M -0.5,17.5 C 0.166667,17.5 0.833333,17.5 1.5,17.5C 3.39737,19.2688 4.56404,21.6021 5,24.5C 5.632,29.6014 6.632,34.6014 8,39.5C 8.67076,38.7476 9.5041,38.4142 10.5,38.5C 10.0772,41.2431 11.2439,42.5765 14,42.5C 19.0358,40.6127 24.2025,39.7794 29.5,40C 30.9544,48.4122 32.1211,56.9122 33,65.5C 35.0408,66.4231 37.2075,66.7564 39.5,66.5C 39.9169,67.1239 40.5836,67.4573 41.5,67.5C 46.6298,66.3074 51.7965,65.3074 57,64.5C 58.6811,64.6083 59.8478,65.2749 60.5,66.5C 59.7101,67.7942 58.7101,68.9609 57.5,70C 43.9714,72.1964 30.6381,74.6964 17.5,77.5C 14.1667,77.5 10.8333,77.5 7.5,77.5C 4.50359,65.1685 1.83692,52.8351 -0.5,40.5C -0.5,32.8333 -0.5,25.1667 -0.5,17.5 Z"/></g>
<g><path style="opacity:1" fill="#0c0c0e" d="M 59.5,36.5 C 59.1961,37.1499 58.8627,37.8165 58.5,38.5C 52.5435,39.5869 46.5435,40.2536 40.5,40.5C 39.1716,39.0903 39.5049,37.9236 41.5,37C 47.4908,36.5005 53.4908,36.3338 59.5,36.5 Z"/></g>
<g><path style="opacity:0.976" fill="#8f67ef" d="M 59.5,36.5 C 60.9733,37.072 62.3066,37.9054 63.5,39C 62.8333,39.3333 62.1667,39.6667 61.5,40C 62.5634,41.1882 63.8967,41.6882 65.5,41.5C 66.0869,47.0367 67.0869,52.37 68.5,57.5C 68.5,58.5 68.5,59.5 68.5,60.5C 66.9904,63.933 64.3237,65.933 60.5,66.5C 59.8478,65.2749 58.6811,64.6083 57,64.5C 51.7965,65.3074 46.6298,66.3074 41.5,67.5C 40.5836,67.4573 39.9169,67.1239 39.5,66.5C 41.9588,65.1262 42.9588,62.9595 42.5,60C 41.5037,53.5275 40.837,47.0275 40.5,40.5C 46.5435,40.2536 52.5435,39.5869 58.5,38.5C 58.8627,37.8165 59.1961,37.1499 59.5,36.5 Z"/></g>
<g><path style="opacity:1" fill="#8963e5" d="M 19.5,43.5 C 21.8333,43.5 24.1667,43.5 26.5,43.5C 27.739,51.4578 28.739,59.4578 29.5,67.5C 29.2908,68.9945 28.6241,70.1612 27.5,71C 22.581,71.8015 17.7477,71.6349 13,70.5C 11.0154,62.6238 9.84872,54.6238 9.5,46.5C 13.0839,46.0246 16.4172,45.0246 19.5,43.5 Z"/></g>
</svg>
