<?xml version="1.0" encoding="UTF-8"?>
<!DOCTYPE svg PUBLIC "-//W3C//DTD SVG 1.1//EN" "http://www.w3.org/Graphics/SVG/1.1/DTD/svg11.dtd">
<svg xmlns="http://www.w3.org/2000/svg" version="1.1" width="69px" height="78px" style="shape-rendering:geometricPrecision; text-rendering:geometricPrecision; image-rendering:optimizeQuality; fill-rule:evenodd; clip-rule:evenodd" xmlns:xlink="http://www.w3.org/1999/xlink">
<g><path style="opacity:0.993" fill="#f9f8fc" d="M 34.5,4.5 C 35.352,12.2433 36.6853,19.91 38.5,27.5C 45.8071,28.0045 53.1404,28.1712 60.5,28C 62.9211,31.0482 62.5878,33.8815 59.5,36.5C 53.4908,36.3338 47.4908,36.5005 41.5,37C 39.5049,37.9236 39.1716,39.0903 40.5,40.5C 40.837,47.0275 41.5037,53.5275 42.5,60C 42.9588,62.9595 41.9588,65.1262 39.5,66.5C 37.2075,66.7564 35.0408,66.4231 33,65.5C 32.1211,56.9122 30.9544,48.4122 29.5,40C 24.2025,39.7794 19.0358,40.6127 14,42.5C 11.2439,42.5765 10.0772,41.2431 10.5,38.5C 11.0283,37.2794 11.695,36.1127 12.5,35C 16.3268,33.2103 20.3268,32.0436 24.5,31.5C 25.4959,31.5858 26.3292,31.2524 27,30.5C 27.1667,29.1667 27.3333,27.8333 27.5,26.5C 26.0098,19.9126 25.0098,13.246 24.5,6.5C 24.5774,5.25025 25.244,4.41691 26.5,4C 29.2605,3.27817 31.9272,3.44484 34.5,4.5 Z"/></g>
<g><path style="opacity:0.959" fill="#936af4" d="M 64.5,36.5 C 63.2578,38.5108 61.5911,38.5108 59.5,36.5C 62.5878,33.8815 62.9211,31.0482 60.5,28C 53.1404,28.1712 45.8071,28.0045 38.5,27.5C 36.6853,19.91 35.352,12.2433 34.5,4.5C 40.6868,3.6964 46.8535,2.6964 53,1.5C 55.151,1.64312 56.8176,2.64312 58,4.5C 60.6142,15.0707 62.7808,25.7374 64.5,36.5 Z"/></g>
<g><path style="opacity:0.978" fill="#0e0d0f" d="M 24.5,6.5 C 25.0098,13.246 26.0098,19.9126 27.5,26.5C 27.3333,27.8333 27.1667,29.1667 27,30.5C 26.3292,31.2524 25.4959,31.5858 24.5,31.5C 23.0376,23.5212 21.7042,15.5212 20.5,7.5C 21.7079,6.76589 23.0413,6.43255 24.5,6.5 Z"/></g>
<g><path style="opacity:0.965" fill="#9169f1" d="M 20.5,7.5 C 21.7042,15.5212 23.0376,23.5212 24.5,31.5C 20.3268,32.0436 16.3268,33.2103 12.5,35C 11.695,36.1127 11.0283,37.2794 10.5,38.5C 7.70256,38.9666 6.36922,40.6333 6.5,43.5C 3.53418,33.4782 2.03418,23.1448 2,12.5C 2.90252,11.2986 4.06919,10.4652 5.5,10C 10.4742,8.94874 15.4742,8.11541 20.5,7.5 Z"/></g>
<g><path style="opacity:1" fill="#15121a" d="M 59.5,36.5 C 58.9717,37.7206 58.305,38.8873 57.5,40C 51.8431,40.4994 46.1764,40.6661 40.5,40.5C 39.1716,39.0903 39.5049,37.9236 41.5,37C 47.4908,36.5005 53.4908,36.3338 59.5,36.5 Z"/></g>
<g><path style="opacity:0.969" fill="#9168f3" d="M 59.5,36.5 C 61.5911,38.5108 63.2578,38.5108 64.5,36.5C 65.5277,43.6838 66.8611,50.6838 68.5,57.5C 68.5,58.5 68.5,59.5 68.5,60.5C 67.245,63.577 64.9117,65.4104 61.5,66C 54.2086,67.492 46.8753,68.6587 39.5,69.5C 39.5,68.5 39.5,67.5 39.5,66.5C 41.9588,65.1262 42.9588,62.9595 42.5,60C 41.5037,53.5275 40.837,47.0275 40.5,40.5C 46.1764,40.6661 51.8431,40.4994 57.5,40C 58.305,38.8873 58.9717,37.7206 59.5,36.5 Z"/></g>
<g><path style="opacity:0.961" fill="#121214" d="M 10.5,38.5 C 10.0772,41.2431 11.2439,42.5765 14,42.5C 19.0358,40.6127 24.2025,39.7794 29.5,40C 30.9544,48.4122 32.1211,56.9122 33,65.5C 35.0408,66.4231 37.2075,66.7564 39.5,66.5C 39.5,67.5 39.5,68.5 39.5,69.5C 39.0472,70.4584 38.3805,71.2917 37.5,72C 34.633,72.8007 31.9664,72.6341 29.5,71.5C 28.8122,62.1736 27.8122,52.8403 26.5,43.5C 19.7533,44.19 13.0866,45.19 6.5,46.5C 6.5,45.5 6.5,44.5 6.5,43.5C 6.36922,40.6333 7.70256,38.9666 10.5,38.5 Z"/></g>
<g><path style="opacity:0.97" fill="#8f67ef" d="M 29.5,71.5 C 24.2584,72.9848 18.925,73.4848 13.5,73C 12.6667,72.1667 11.8333,71.3333 11,70.5C 9.17513,62.5494 7.67513,54.5494 6.5,46.5C 13.0866,45.19 19.7533,44.19 26.5,43.5C 27.8122,52.8403 28.8122,62.1736 29.5,71.5 Z"/></g>
</svg>
